<svg width="187" height="117" viewBox="0 0 187 117" fill="none" xmlns="http://www.w3.org/2000/svg">
<path d="M53.9062 69.3184L55.9043 69.4066L55.9966 67.3184H53.9062V69.3184ZM10.791 86.0664L9.23205 87.3193L9.24055 87.3298L10.791 86.0664ZM11.0352 28.8887L12.5669 30.1746L12.5708 30.17L11.0352 28.8887ZM47.1191 27.4238L45.6508 28.7818L45.6563 28.7877L47.1191 27.4238ZM54.0039 46.0762V48.0762H56.1451L55.9993 45.9399L54.0039 46.0762ZM39.5996 46.0762L37.6003 46.1281L37.6509 48.0762H39.5996V46.0762ZM37.2559 35.7246L35.6396 36.9026L35.6509 36.9181L35.6625 36.9334L37.2559 35.7246ZM21.3379 36.8965L23.0547 37.9224L23.0602 37.9132L21.3379 36.8965ZM18.7988 50.1289L16.7991 50.0972L16.7988 50.113V50.1289H18.7988ZM21.1426 78.1074L19.422 79.127L19.4266 79.1348L19.4313 79.1426L21.1426 78.1074ZM37.1094 79.3281L38.682 80.5638L38.6873 80.557L38.6926 80.5502L37.1094 79.3281ZM39.5508 69.3184V67.3184H37.6302L37.5524 69.2373L39.5508 69.3184ZM51.9082 69.2301C51.564 77.0219 49.3896 82.6078 45.6616 86.3069L48.479 89.1463C53.1495 84.512 55.5324 77.8257 55.9043 69.4066L51.9082 69.2301ZM45.6616 86.3069C41.9378 90.0018 36.5802 91.9766 29.2969 91.9766V95.9766C37.313 95.9766 43.8044 93.7846 48.479 89.1463L45.6616 86.3069ZM29.2969 91.9766C21.736 91.9766 16.1878 89.5235 12.3415 84.8031L9.24055 87.3298C13.988 93.1562 20.777 95.9766 29.2969 95.9766V91.9766ZM12.35 84.8135C8.47308 79.9896 6.39453 72.9477 6.39453 63.4102H2.39453C2.39453 73.469 4.58031 81.5312 9.23208 87.3193L12.35 84.8135ZM6.39453 63.4102V51.4473H2.39453V63.4102H6.39453ZM6.39453 51.4473C6.39453 41.9582 8.54708 34.963 12.5669 30.1746L9.50337 27.6027C4.66907 33.3612 2.39453 41.4051 2.39453 51.4473H6.39453ZM12.5708 30.17C16.5621 25.3863 22.1147 22.9297 29.4922 22.9297V18.9297C21.1145 18.9297 14.3624 21.779 9.49949 27.6074L12.5708 30.17ZM29.4922 22.9297C36.866 22.9297 42.1345 24.9796 45.6508 28.7818L48.5875 26.0659C44.096 21.2092 37.6132 18.9297 29.4922 18.9297V22.9297ZM45.6563 28.7877C49.2806 32.675 51.4749 38.3957 52.0086 46.2124L55.9993 45.9399C55.4262 37.5457 53.0306 30.8315 48.582 26.06L45.6563 28.7877ZM54.0039 44.0762H39.5996V48.0762H54.0039V44.0762ZM41.5989 46.0242C41.4677 40.9707 40.694 36.9475 38.8492 34.5158L35.6625 36.9334C36.6823 38.2777 37.4711 41.1556 37.6003 46.1281L41.5989 46.0242ZM38.8721 34.5466C36.9164 31.8632 33.5246 30.8438 29.4922 30.8438V34.8438C33.0119 34.8438 34.7958 35.7449 35.6396 36.9026L38.8721 34.5466ZM29.4922 30.8438C25.1288 30.8438 21.6556 32.4243 19.6156 35.8797L23.0602 37.9132C24.2103 35.9651 26.1733 34.8438 29.4922 34.8438V30.8438ZM19.6211 35.8706C17.7426 39.0142 16.8978 43.8757 16.7991 50.0972L20.7986 50.1606C20.8951 44.0775 21.7431 40.1173 23.0547 37.9224L19.6211 35.8706ZM16.7988 50.1289V63.5566H20.7988V50.1289H16.7988ZM16.7988 63.5566C16.7988 67.1532 16.9971 70.2454 17.4102 72.8102C17.8196 75.3517 18.4591 77.5021 19.422 79.127L22.8632 77.0878C22.2636 76.076 21.7312 74.4829 21.3593 72.1741C20.9912 69.8887 20.7988 67.0239 20.7988 63.5566H16.7988ZM19.4313 79.1426C21.4811 82.5311 24.9551 84.0625 29.2969 84.0625V80.0625C25.9563 80.0625 23.9941 78.9572 22.8538 77.0722L19.4313 79.1426ZM29.2969 84.0625C33.3034 84.0625 36.6842 83.1064 38.682 80.5638L35.5367 78.0925C34.6699 79.1957 32.8424 80.0625 29.2969 80.0625V84.0625ZM38.6926 80.5502C40.5331 78.1658 41.3516 74.2723 41.5491 69.3994L37.5524 69.2373C37.3593 73.9999 36.5502 76.7795 35.5262 78.106L38.6926 80.5502ZM39.5508 71.3184H53.9062V67.3184H39.5508V71.3184ZM90.5273 67.8047L89.0977 69.2033L89.113 69.219L89.1288 69.2344L90.5273 67.8047ZM82.4707 63.166L83.2268 61.3144L83.2033 61.3048L83.1795 61.2958L82.4707 63.166ZM67.0898 53.6934L65.5713 54.995L65.5771 55.0017L67.0898 53.6934ZM68.75 26.3984L70.0487 27.9194L70.0497 27.9186L68.75 26.3984ZM96.6309 23.7129L95.6767 25.4706L95.6832 25.4741L95.6897 25.4776L96.6309 23.7129ZM104.492 31.4766L102.735 32.4319L102.739 32.4384L102.742 32.445L104.492 31.4766ZM107.275 42.9023V44.9023H109.275V42.9023H107.275ZM92.9688 42.9023H90.9688V44.9023H92.9688V42.9023ZM90.8203 35.334L89.2558 36.5798L89.2685 36.5958L89.2815 36.6115L90.8203 35.334ZM78.8574 34.9434L80.3034 36.3251L80.311 36.3171L80.3185 36.3091L78.8574 34.9434ZM79.1016 46.2227L77.6728 47.6222L77.6801 47.6296L77.6873 47.6369L79.1016 46.2227ZM87.4023 51.1055L86.6181 52.9453L86.6697 52.9673L86.7224 52.9863L87.4023 51.1055ZM102.49 60.334L100.972 61.6356L100.978 61.6433L102.49 60.334ZM63.8184 83.0391L62.1047 84.0704L62.1118 84.082L63.8184 83.0391ZM60.6445 70.5879V68.5879H58.6445V70.5879H60.6445ZM75.0488 70.5879H77.0488V68.5879H75.0488V70.5879ZM94.7734 74.3477C94.7734 71.1233 93.9363 68.3416 91.9259 66.375L89.1288 69.2344C90.1132 70.1974 90.7734 71.7777 90.7734 74.3477H94.7734ZM91.957 66.4061C90.1907 64.6006 87.1813 62.9292 83.2268 61.3144L81.7146 65.0176C85.5726 66.5929 87.9343 68.014 89.0977 69.2033L91.957 66.4061ZM83.1795 61.2958C76.1949 58.6487 71.4181 55.6405 68.6026 52.3851L65.5771 55.0017C69.0116 58.9728 74.4887 62.2797 81.7619 65.0362L83.1795 61.2958ZM68.6084 52.3918C65.8042 49.1203 64.4023 45.2891 64.4023 40.8027H60.4023C60.4023 46.2122 62.1254 50.9747 65.5713 54.9949L68.6084 52.3918ZM64.4023 40.8027C64.4023 35.3476 66.2991 31.121 70.0487 27.9194L67.4513 24.8774C62.7373 28.9025 60.4023 34.2787 60.4023 40.8027H64.4023ZM70.0497 27.9186C73.8929 24.6327 78.8109 22.9297 84.9609 22.9297V18.9297C78.025 18.9297 72.1357 20.8725 67.4503 24.8783L70.0497 27.9186ZM84.9609 22.9297C89.0308 22.9297 92.5858 23.7927 95.6767 25.4706L97.585 21.9552C93.84 19.9222 89.615 18.9297 84.9609 18.9297V22.9297ZM95.6897 25.4776C98.7679 27.1193 101.102 29.4283 102.735 32.4319L106.249 30.5212C104.236 26.8191 101.33 23.9523 97.572 21.9482L95.6897 25.4776ZM102.742 32.445C104.416 35.4691 105.275 38.9378 105.275 42.9023H109.275C109.275 38.3382 108.279 34.1898 106.242 30.5082L102.742 32.445ZM107.275 40.9023H92.9688V44.9023H107.275V40.9023ZM94.9688 42.9023C94.9688 39.3324 94.2036 36.2782 92.3591 34.0565L89.2815 36.6115C90.3016 37.8403 90.9688 39.8316 90.9688 42.9023H94.9688ZM92.3849 34.0881C90.5327 31.7621 87.8675 30.6973 84.7168 30.6973V34.6973C86.9046 34.6973 88.3085 35.3902 89.2558 36.5798L92.3849 34.0881ZM84.7168 30.6973C81.7892 30.6973 79.2563 31.5879 77.3964 33.5776L80.3185 36.3091C81.258 35.304 82.6314 34.6973 84.7168 34.6973V30.6973ZM77.4114 33.5616C75.5763 35.4821 74.7578 38.0076 74.7578 40.9004H78.7578C78.7578 38.7801 79.3391 37.3343 80.3034 36.3251L77.4114 33.5616ZM74.7578 40.9004C74.7578 43.4527 75.8009 45.7113 77.6728 47.6222L80.5303 44.8231C79.2772 43.5439 78.7578 42.2543 78.7578 40.9004H74.7578ZM77.6873 47.6369C79.5312 49.4807 82.5925 51.2295 86.6181 52.9453L88.1865 49.2656C84.2694 47.596 81.7969 46.0896 80.5158 44.8084L77.6873 47.6369ZM86.7224 52.9863C93.4904 55.433 98.1607 58.3561 100.972 61.6356L104.009 59.0324C100.57 55.0202 95.1815 51.791 88.0823 49.2246L86.7224 52.9863ZM100.978 61.6433C103.769 64.866 105.227 69.0143 105.227 74.25H109.227C109.227 68.2227 107.526 63.0936 104.002 59.0246L100.978 61.6433ZM105.227 74.25C105.227 79.9728 103.426 84.2181 99.9935 87.2537L102.643 90.2502C107.088 86.3197 109.227 80.8969 109.227 74.25H105.227ZM99.9935 87.2537C96.5155 90.3293 91.6809 91.9766 85.2539 91.9766V95.9766C92.3686 95.9766 98.2436 94.1408 102.643 90.2502L99.9935 87.2537ZM85.2539 91.9766C80.947 91.9766 77.0742 91.093 73.5995 89.3557L71.8107 92.9334C75.8881 94.9721 80.3812 95.9766 85.2539 95.9766V91.9766ZM73.5995 89.3557C70.15 87.6309 67.4729 85.1837 65.5249 81.9962L62.1118 84.082C64.4607 87.9257 67.7081 90.8821 71.8107 92.9334L73.5995 89.3557ZM65.5319 82.0077C63.6327 78.8521 62.6445 75.0709 62.6445 70.5879H58.6445C58.6445 75.6752 59.7723 80.1948 62.1048 84.0704L65.5319 82.0077ZM60.6445 72.5879H75.0488V68.5879H60.6445V72.5879ZM73.0488 70.5879C73.0488 74.8691 73.8667 78.4331 75.9248 80.8272L78.958 78.2197C77.826 76.9028 77.0488 74.5098 77.0488 70.5879H73.0488ZM75.9248 80.8272C78.052 83.3017 81.3409 84.3066 85.2539 84.3066V80.3066C81.9404 80.3066 80.021 79.4561 78.958 78.2197L75.9248 80.8272ZM85.2539 84.3066C88.0986 84.3066 90.592 83.5484 92.3473 81.6904C94.0826 79.8537 94.7734 77.2815 94.7734 74.3477H90.7734C90.7734 76.7198 90.211 78.127 89.4398 78.9434C88.6886 79.7384 87.4222 80.3066 85.2539 80.3066V84.3066Z" fill="black"/>
<path d="M163.904 66.584L170.643 21.9062H184.852L172.205 93H157.801L149.5 51.1055L141.297 93H126.844L114.148 21.9062H128.455L135.145 66.5352L143.494 21.9062H155.555L163.904 66.584Z" fill="black"/>
<path d="M163.904 66.584L162.921 66.7677L164.893 66.7331L163.904 66.584ZM170.643 21.9062V20.9062H169.782L169.654 21.7571L170.643 21.9062ZM184.852 21.9062L185.836 22.0814L186.045 20.9062H184.852V21.9062ZM172.205 93V94H173.043L173.19 93.1751L172.205 93ZM157.801 93L156.82 93.1944L156.979 94H157.801V93ZM149.5 51.1055L150.481 50.9111L148.519 50.9133L149.5 51.1055ZM141.297 93V94H142.12L142.278 93.1922L141.297 93ZM126.844 93L125.859 93.1758L126.007 94H126.844V93ZM114.148 21.9062V20.9062H112.954L113.164 22.082L114.148 21.9062ZM128.455 21.9062L129.444 21.758L129.316 20.9062H128.455V21.9062ZM135.145 66.5352L134.156 66.6834L136.127 66.7191L135.145 66.5352ZM143.494 21.9062V20.9062H142.664L142.511 21.7224L143.494 21.9062ZM155.555 21.9062L156.538 21.7225L156.385 20.9062H155.555V21.9062ZM164.893 66.7331L171.631 22.0554L169.654 21.7571L162.915 66.4349L164.893 66.7331ZM170.643 22.9062H184.852V20.9062H170.643V22.9062ZM183.867 21.7311L171.221 92.8249L173.19 93.1751L185.836 22.0814L183.867 21.7311ZM172.205 92H157.801V94H172.205V92ZM158.782 92.8056L150.481 50.9111L148.519 51.2998L156.82 93.1944L158.782 92.8056ZM148.519 50.9133L140.316 92.8078L142.278 93.1922L150.481 51.2976L148.519 50.9133ZM141.297 92H126.844V94H141.297V92ZM127.828 92.8242L115.133 21.7305L113.164 22.082L125.859 93.1758L127.828 92.8242ZM114.148 22.9062H128.455V20.9062H114.148V22.9062ZM127.466 22.0545L134.156 66.6834L136.133 66.3869L129.444 21.758L127.466 22.0545ZM136.127 66.7191L144.477 22.0901L142.511 21.7224L134.162 66.3513L136.127 66.7191ZM143.494 22.9062H155.555V20.9062H143.494V22.9062ZM154.572 22.09L162.921 66.7677L164.887 66.4003L156.538 21.7225L154.572 22.09Z" fill="black"/>
</svg>
