<svg width="187" height="128" viewBox="0 0 187 128" fill="none" xmlns="http://www.w3.org/2000/svg">
<path d="M42.7812 118.264L43.7803 118.308L43.8264 117.264H42.7812V118.264ZM34.1582 121.613L33.3787 122.24L33.383 122.245L34.1582 121.613ZM34.207 110.178L34.9729 110.821L34.9749 110.818L34.207 110.178ZM41.4238 109.885L40.6897 110.564L40.6924 110.567L41.4238 109.885ZM42.8008 113.615V114.615H43.8714L43.7985 113.547L42.8008 113.615ZM39.9199 113.615L38.9203 113.641L38.9456 114.615H39.9199V113.615ZM39.4512 111.545L38.643 112.134L38.6487 112.142L38.6545 112.149L39.4512 111.545ZM36.2676 111.779L37.126 112.292L37.1287 112.288L36.2676 111.779ZM35.7598 114.426L34.7599 114.41L34.7598 114.418V114.426H35.7598ZM36.2285 120.021L35.3682 120.531L35.3729 120.539L36.2285 120.021ZM39.4219 120.266L40.2082 120.883L40.2135 120.877L39.4219 120.266ZM39.9102 118.264V117.264H38.9499L38.911 118.223L39.9102 118.264ZM41.7822 118.22C41.7175 119.684 41.3139 120.636 40.7097 121.235L42.1184 122.655C43.1939 121.588 43.7017 120.086 43.7803 118.308L41.7822 118.22ZM40.7097 121.235C40.1076 121.833 39.2061 122.195 37.8594 122.195V124.195C39.5725 124.195 41.0409 123.724 42.1184 122.655L40.7097 121.235ZM37.8594 122.195C36.4911 122.195 35.5675 121.76 34.9334 120.982L33.383 122.245C34.4676 123.576 36.0116 124.195 37.8594 124.195V122.195ZM34.9377 120.987C34.2785 120.167 33.8789 118.911 33.8789 117.082H31.8789C31.8789 119.172 32.3321 120.937 33.3787 122.24L34.9377 120.987ZM33.8789 117.082V114.689H31.8789V117.082H33.8789ZM33.8789 114.689C33.8789 112.875 34.2911 111.633 34.9729 110.821L33.4411 109.535C32.3521 110.832 31.8789 112.598 31.8789 114.689H33.8789ZM34.9749 110.818C35.6424 110.018 36.573 109.586 37.8984 109.586V107.586C36.0729 107.586 34.5425 108.215 33.4392 109.537L34.9749 110.818ZM37.8984 109.586C39.2611 109.586 40.1327 109.961 40.6897 110.564L42.158 109.206C41.1134 108.076 39.6347 107.586 37.8984 107.586V109.586ZM40.6924 110.567C41.2936 111.212 41.7023 112.207 41.8031 113.683L43.7985 113.547C43.6779 111.782 43.1686 110.29 42.1552 109.203L40.6924 110.567ZM42.8008 112.615H39.9199V114.615H42.8008V112.615ZM40.9196 113.589C40.893 112.566 40.7405 111.59 40.2479 110.941L38.6545 112.149C38.7347 112.255 38.8947 112.659 38.9203 113.641L40.9196 113.589ZM40.2593 110.956C39.7014 110.19 38.7818 109.969 37.8984 109.969V111.969C38.5255 111.969 38.6411 112.131 38.643 112.134L40.2593 110.956ZM37.8984 109.969C36.8691 109.969 35.9479 110.354 35.4064 111.271L37.1287 112.288C37.2253 112.124 37.3913 111.969 37.8984 111.969V109.969ZM35.4092 111.266C34.9484 112.037 34.78 113.145 34.7599 114.41L36.7596 114.442C36.7786 113.246 36.9487 112.589 37.126 112.292L35.4092 111.266ZM34.7598 114.426V117.111H36.7598V114.426H34.7598ZM34.7598 117.111C34.7598 117.85 34.8003 118.503 34.8897 119.057C34.9772 119.601 35.1211 120.114 35.3682 120.531L37.0888 119.512C37.0234 119.401 36.933 119.166 36.8642 118.739C36.7974 118.324 36.7598 117.785 36.7598 117.111H34.7598ZM35.3729 120.539C35.9193 121.442 36.8409 121.812 37.8594 121.812V119.812C37.3414 119.812 37.1758 119.655 37.0841 119.504L35.3729 120.539ZM37.8594 121.812C38.7298 121.812 39.639 121.608 40.2082 120.883L38.6356 119.648C38.6318 119.653 38.4993 119.812 37.8594 119.812V121.812ZM40.2135 120.877C40.7041 120.241 40.8692 119.295 40.9093 118.304L38.911 118.223C38.873 119.159 38.7126 119.548 38.6303 119.655L40.2135 120.877ZM39.9102 119.264H42.7812V117.264H39.9102V119.264ZM53.2012 121.613L52.4422 120.962L52.4399 120.965L53.2012 121.613ZM45.6914 121.633L44.9368 122.289L44.9388 122.291L45.6914 121.633ZM44.3047 117.238H43.3047L43.3047 117.245L44.3047 117.238ZM45.6621 110.236L46.4326 110.874L46.4344 110.872L45.6621 110.236ZM53.1719 110.207L52.4074 110.852L52.4094 110.854L53.1719 110.207ZM54.5586 114.738H55.5586L55.5586 114.732L54.5586 114.738ZM47.7422 111.896L48.5964 112.416L48.5989 112.412L47.7422 111.896ZM47.1758 114.641L46.1758 114.63V114.641H47.1758ZM47.7324 119.924L46.8849 120.455L46.8876 120.459L47.7324 119.924ZM51.1211 119.943L51.9648 120.48L51.9675 120.476L51.1211 119.943ZM51.6777 117.258L52.6777 117.263V117.258H51.6777ZM53.5586 117.17C53.5586 118.928 53.1421 120.146 52.4422 120.962L53.9601 122.264C55.0701 120.971 55.5586 119.227 55.5586 117.17H53.5586ZM52.4399 120.965C51.7621 121.76 50.8105 122.195 49.4512 122.195V124.195C51.2949 124.195 52.8433 123.575 53.9624 122.262L52.4399 120.965ZM49.4512 122.195C48.0958 122.195 47.1357 121.765 46.444 120.974L44.9388 122.291C46.07 123.584 47.6164 124.195 49.4512 124.195V122.195ZM46.446 120.977C45.7392 120.164 45.3166 118.959 45.3047 117.231L43.3047 117.245C43.3188 119.28 43.8207 121.005 44.9368 122.289L46.446 120.977ZM45.3047 117.238V114.807H43.3047V117.238H45.3047ZM45.3047 114.807C45.3047 112.999 45.7233 111.731 46.4326 110.874L44.8916 109.599C43.791 110.929 43.3047 112.708 43.3047 114.807H45.3047ZM46.4344 110.872C47.1235 110.034 48.0792 109.586 49.4316 109.586V107.586C47.5679 107.586 46.0106 108.238 44.8898 109.601L46.4344 110.872ZM49.4316 109.586C50.7584 109.586 51.71 110.025 52.4074 110.852L53.9363 109.562C52.8108 108.228 51.2689 107.586 49.4316 107.586V109.586ZM52.4094 110.854C53.1199 111.691 53.5466 112.944 53.5586 114.745L55.5586 114.732C55.5446 112.639 55.0468 110.871 53.9344 109.56L52.4094 110.854ZM53.5586 114.738V117.17H55.5586V114.738H53.5586ZM52.6777 114.787C52.6777 113.446 52.4934 112.277 51.9946 111.422L50.2671 112.43C50.4974 112.825 50.6777 113.563 50.6777 114.787H52.6777ZM51.9946 111.422C51.4377 110.467 50.5287 109.988 49.4316 109.988V111.988C49.871 111.988 50.0948 112.134 50.2671 112.43L51.9946 111.422ZM49.4316 109.988C48.3522 109.988 47.4474 110.448 46.8855 111.381L48.5989 112.412C48.7661 112.135 48.9876 111.988 49.4316 111.988V109.988ZM46.888 111.377C46.3833 112.206 46.1895 113.338 46.1758 114.63L48.1757 114.651C48.1881 113.483 48.3719 112.785 48.5964 112.416L46.888 111.377ZM46.1758 114.641V117.17H48.1758V114.641H46.1758ZM46.1758 117.17C46.1758 118.474 46.3633 119.622 46.8849 120.455L48.5799 119.393C48.3593 119.041 48.1758 118.353 48.1758 117.17H46.1758ZM46.8876 120.459C47.4661 121.372 48.3813 121.803 49.4512 121.803V119.803C48.9715 119.803 48.7409 119.647 48.5772 119.389L46.8876 120.459ZM49.4512 121.803C50.5001 121.803 51.3953 121.375 51.9648 120.48L50.2774 119.406C50.1177 119.657 49.8997 119.803 49.4512 119.803V121.803ZM51.9675 120.476C52.4817 119.659 52.6709 118.536 52.6777 117.263L50.6777 117.252C50.6716 118.402 50.4896 119.069 50.2747 119.411L51.9675 120.476ZM52.6777 117.258V114.787H50.6777V117.258H52.6777ZM65.8672 108.781H66.8672V107.781H65.8672V108.781ZM65.8672 118.625L66.8672 118.634V118.625H65.8672ZM64.6465 122.023L65.3448 122.739L65.3478 122.736L64.6465 122.023ZM57.7031 122.004L56.9989 122.714L57.0018 122.717L57.7031 122.004ZM56.502 108.781V107.781H55.502V108.781H56.502ZM59.3926 108.781H60.3926V107.781H59.3926V108.781ZM59.7832 120.295L60.5814 119.693L59.7832 120.295ZM62.6055 120.305L63.4055 120.905L63.4109 120.897L62.6055 120.305ZM62.9961 118.615L63.9961 118.624V118.615H62.9961ZM62.9961 108.781V107.781H61.9961V108.781H62.9961ZM64.8672 108.781V118.625H66.8672V108.781H64.8672ZM64.8672 118.616C64.8558 119.916 64.5031 120.762 63.9452 121.311L65.3478 122.736C66.3915 121.71 66.8526 120.29 66.8671 118.634L64.8672 118.616ZM63.9482 121.308C63.3904 121.852 62.5264 122.195 61.1992 122.195V124.195C62.8668 124.195 64.301 123.758 65.3448 122.739L63.9482 121.308ZM61.1992 122.195C59.8451 122.195 58.9675 121.845 58.4045 121.291L57.0018 122.717C58.0534 123.751 59.5064 124.195 61.1992 124.195V122.195ZM58.4073 121.294C57.8524 120.744 57.502 119.886 57.502 118.557H55.502C55.502 120.235 55.9522 121.676 56.9989 122.714L58.4073 121.294ZM57.502 118.557V108.781H55.502V118.557H57.502ZM56.502 109.781H59.3926V107.781H56.502V109.781ZM58.3926 108.781V118.566H60.3926V108.781H58.3926ZM58.3926 118.566C58.3926 119.428 58.5211 120.283 58.985 120.897L60.5814 119.693C60.5245 119.617 60.3926 119.319 60.3926 118.566H58.3926ZM58.985 120.897C59.5232 121.61 60.3866 121.812 61.1992 121.812V119.812C60.9352 119.812 60.7701 119.778 60.6758 119.744C60.631 119.727 60.6066 119.713 60.5953 119.705C60.5849 119.697 60.582 119.693 60.5814 119.693L58.985 120.897ZM61.1992 121.812C62.003 121.812 62.8705 121.618 63.4055 120.905L61.8055 119.705C61.815 119.692 61.808 119.715 61.7238 119.745C61.6305 119.779 61.4652 119.812 61.1992 119.812V121.812ZM63.4109 120.897C63.8562 120.292 63.9891 119.464 63.9961 118.624L61.9961 118.607C61.9901 119.329 61.8625 119.627 61.8 119.712L63.4109 120.897ZM63.9961 118.615V108.781H61.9961V118.615H63.9961ZM62.9961 109.781H65.8672V107.781H62.9961V109.781ZM77.9863 123V124H78.9863V123H77.9863ZM75.1152 123L74.2034 123.411L74.4688 124H75.1152V123ZM70.916 113.674L71.8278 113.263L69.916 113.674H70.916ZM70.916 123V124H71.916V123H70.916ZM68.0449 123H67.0449V124H68.0449V123ZM68.0449 108.781V107.781H67.0449V108.781H68.0449ZM70.916 108.781L71.8277 108.37L71.5621 107.781H70.916V108.781ZM75.125 118.117L74.2134 118.528L76.125 118.117H75.125ZM75.125 108.781V107.781H74.125V108.781H75.125ZM77.9863 108.781H78.9863V107.781H77.9863V108.781ZM77.9863 122H75.1152V124H77.9863V122ZM76.0271 122.589L71.8278 113.263L70.0042 114.084L74.2034 123.411L76.0271 122.589ZM69.916 113.674V123H71.916V113.674H69.916ZM70.916 122H68.0449V124H70.916V122ZM69.0449 123V108.781H67.0449V123H69.0449ZM68.0449 109.781H70.916V107.781H68.0449V109.781ZM70.0044 109.192L74.2134 118.528L76.0366 117.706L71.8277 108.37L70.0044 109.192ZM76.125 118.117V108.781H74.125V118.117H76.125ZM75.125 109.781H77.9863V107.781H75.125V109.781ZM76.9863 108.781V123H78.9863V108.781H76.9863ZM89.207 111.174V112.174H90.207V111.174H89.207ZM85.6914 111.174V110.174H84.6914V111.174H85.6914ZM85.6914 123V124H86.6914V123H85.6914ZM82.8105 123H81.8105V124H82.8105V123ZM82.8105 111.174H83.8105V110.174H82.8105V111.174ZM79.3535 111.174H78.3535V112.174H79.3535V111.174ZM79.3535 108.781V107.781H78.3535V108.781H79.3535ZM89.207 108.781H90.207V107.781H89.207V108.781ZM89.207 110.174H85.6914V112.174H89.207V110.174ZM84.6914 111.174V123H86.6914V111.174H84.6914ZM85.6914 122H82.8105V124H85.6914V122ZM83.8105 123V111.174H81.8105V123H83.8105ZM82.8105 110.174H79.3535V112.174H82.8105V110.174ZM80.3535 111.174V108.781H78.3535V111.174H80.3535ZM79.3535 109.781H89.207V107.781H79.3535V109.781ZM88.207 108.781V111.174H90.207V108.781H88.207ZM95.1641 117.805L96.0888 117.424L95.8338 116.805H95.1641V117.805ZM93.7383 117.805V116.805H92.7383V117.805H93.7383ZM93.7383 123V124H94.7383V123H93.7383ZM90.8672 123H89.8672V124H90.8672V123ZM90.8672 108.781V107.781H89.8672V108.781H90.8672ZM98.7773 109.904L98.0854 110.626L98.0916 110.632L98.7773 109.904ZM97.8984 117.043L97.4167 116.167L96.6226 116.603L96.9791 117.436L97.8984 117.043ZM100.389 122.863H101.389V122.658L101.308 122.47L100.389 122.863ZM100.389 123V124H101.389V123H100.389ZM97.3027 123L96.378 123.381L96.633 124H97.3027V123ZM93.7383 115.412H92.7383V116.412H93.7383V115.412ZM96.6582 114.846L97.4549 115.45L97.4598 115.444L96.6582 114.846ZM93.7383 111.174V110.174H92.7383V111.174H93.7383ZM95.1641 116.805H93.7383V118.805H95.1641V116.805ZM92.7383 117.805V123H94.7383V117.805H92.7383ZM93.7383 122H90.8672V124H93.7383V122ZM91.8672 123V108.781H89.8672V123H91.8672ZM90.8672 109.781H95.4473V107.781H90.8672V109.781ZM95.4473 109.781C96.7156 109.781 97.5451 110.108 98.0854 110.626L99.4692 109.182C98.4471 108.203 97.0566 107.781 95.4473 107.781V109.781ZM98.0916 110.632C98.6279 111.137 98.959 111.901 98.959 113.078H100.959C100.959 111.508 100.502 110.156 99.4631 109.176L98.0916 110.632ZM98.959 113.078C98.959 114.69 98.3999 115.626 97.4167 116.167L98.3802 117.919C100.144 116.949 100.959 115.242 100.959 113.078H98.959ZM96.9791 117.436L99.4693 123.257L101.308 122.47L98.8178 116.65L96.9791 117.436ZM99.3887 122.863V123H101.389V122.863H99.3887ZM100.389 122H97.3027V124H100.389V122ZM98.2274 122.619L96.0888 117.424L94.2393 118.185L96.378 123.381L98.2274 122.619ZM93.7383 116.412H95.3691V114.412H93.7383V116.412ZM95.3691 116.412C96.1818 116.412 96.9392 116.13 97.4549 115.45L95.8615 114.241C95.8043 114.317 95.7023 114.412 95.3691 114.412V116.412ZM97.4598 115.444C97.9119 114.837 98.0879 114.095 98.0879 113.312H96.0879C96.0879 113.806 95.9775 114.086 95.8566 114.248L97.4598 115.444ZM98.0879 113.312C98.0879 112.497 97.9334 111.701 97.4586 111.093C96.9471 110.438 96.2039 110.174 95.418 110.174V112.174C95.7454 112.174 95.8371 112.266 95.8822 112.324C95.9641 112.429 96.0879 112.702 96.0879 113.312H98.0879ZM95.418 110.174H93.7383V112.174H95.418V110.174ZM92.7383 111.174V115.412H94.7383V111.174H92.7383ZM104.93 123V124H105.93V123H104.93ZM102.059 123H101.059V124H102.059V123ZM102.059 108.781V107.781H101.059V108.781H102.059ZM104.93 108.781H105.93V107.781H104.93V108.781ZM104.93 122H102.059V124H104.93V122ZM103.059 123V108.781H101.059V123H103.059ZM102.059 109.781H104.93V107.781H102.059V109.781ZM103.93 108.781V123H105.93V108.781H103.93ZM114.686 116.848V117.848H115.686V116.848H114.686ZM110.213 116.848V115.848H109.213V116.848H110.213ZM110.213 120.617H109.213V121.617H110.213V120.617ZM115.506 120.617H116.506V119.617H115.506V120.617ZM115.506 123V124H116.506V123H115.506ZM107.342 123H106.342V124H107.342V123ZM107.342 108.781V107.781H106.342V108.781H107.342ZM115.486 108.781H116.486V107.781H115.486V108.781ZM115.486 111.174V112.174H116.486V111.174H115.486ZM110.213 111.174V110.174H109.213V111.174H110.213ZM110.213 114.533H109.213V115.533H110.213V114.533ZM114.686 114.533H115.686V113.533H114.686V114.533ZM114.686 115.848H110.213V117.848H114.686V115.848ZM109.213 116.848V120.617H111.213V116.848H109.213ZM110.213 121.617H115.506V119.617H110.213V121.617ZM114.506 120.617V123H116.506V120.617H114.506ZM115.506 122H107.342V124H115.506V122ZM108.342 123V108.781H106.342V123H108.342ZM107.342 109.781H115.486V107.781H107.342V109.781ZM114.486 108.781V111.174H116.486V108.781H114.486ZM115.486 110.174H110.213V112.174H115.486V110.174ZM109.213 111.174V114.533H111.213V111.174H109.213ZM110.213 115.533H114.686V113.533H110.213V115.533ZM113.686 114.533V116.848H115.686V114.533H113.686ZM122.723 117.961L122.008 118.66L122.016 118.668L122.023 118.676L122.723 117.961ZM121.111 117.033L121.489 116.107L121.478 116.103L121.466 116.098L121.111 117.033ZM118.035 115.139L117.276 115.789L117.279 115.793L118.035 115.139ZM118.367 109.68L119.017 110.44L119.017 110.44L118.367 109.68ZM123.943 109.143L123.466 110.021L123.473 110.025L123.943 109.143ZM125.516 110.695L124.637 111.173L124.641 111.18L125.516 110.695ZM126.072 112.98V113.98H127.072V112.98H126.072ZM123.211 112.98H122.211V113.98H123.211V112.98ZM122.781 111.467L121.999 112.09L122.005 112.098L122.012 112.106L122.781 111.467ZM120.389 111.389L121.112 112.08L121.119 112.072L120.389 111.389ZM120.438 113.645L119.723 114.344L119.73 114.352L120.438 113.645ZM122.098 114.621L121.706 115.541L121.731 115.552L121.758 115.562L122.098 114.621ZM125.115 116.467L124.356 117.118L124.359 117.121L125.115 116.467ZM117.381 121.008L116.524 121.523L116.528 121.529L117.381 121.008ZM116.746 118.518V117.518H115.746V118.518H116.746ZM119.627 118.518H120.627V117.518H119.627V118.518ZM124.172 119.27C124.172 118.526 123.978 117.79 123.422 117.246L122.023 118.676C122.066 118.718 122.172 118.854 122.172 119.27H124.172ZM123.437 117.262C122.994 116.808 122.295 116.436 121.489 116.107L120.733 117.959C121.49 118.268 121.866 118.515 122.008 118.66L123.437 117.262ZM121.466 116.098C120.112 115.585 119.262 115.028 118.792 114.485L117.279 115.793C118.059 116.694 119.259 117.401 120.757 117.968L121.466 116.098ZM118.794 114.488C118.33 113.946 118.098 113.319 118.098 112.561H116.098C116.098 113.781 116.49 114.873 117.276 115.789L118.794 114.488ZM118.098 112.561C118.098 111.63 118.411 110.957 119.017 110.44L117.718 108.919C116.63 109.848 116.098 111.095 116.098 112.561H118.098ZM119.017 110.44C119.659 109.891 120.497 109.586 121.609 109.586V107.586C120.104 107.586 118.781 108.01 117.717 108.92L119.017 110.44ZM121.609 109.586C122.336 109.586 122.946 109.739 123.466 110.021L124.42 108.264C123.573 107.804 122.628 107.586 121.609 107.586V109.586ZM123.473 110.025C123.986 110.299 124.367 110.677 124.637 111.173L126.394 110.218C125.935 109.372 125.267 108.715 124.414 108.26L123.473 110.025ZM124.641 111.18C124.921 111.686 125.072 112.277 125.072 112.98H127.072C127.072 111.978 126.853 111.046 126.391 110.211L124.641 111.18ZM126.072 111.98H123.211V113.98H126.072V111.98ZM124.211 112.98C124.211 112.192 124.043 111.421 123.551 110.828L122.012 112.106C122.092 112.202 122.211 112.441 122.211 112.98H124.211ZM123.564 110.844C123.057 110.208 122.335 109.939 121.561 109.939V111.939C121.854 111.939 121.945 112.022 121.999 112.09L123.564 110.844ZM121.561 109.939C120.849 109.939 120.168 110.16 119.658 110.706L121.119 112.072C121.169 112.018 121.27 111.939 121.561 111.939V109.939ZM119.666 110.698C119.168 111.219 118.969 111.886 118.969 112.58H120.969C120.969 112.272 121.049 112.145 121.112 112.08L119.666 110.698ZM118.969 112.58C118.969 113.27 119.256 113.867 119.723 114.344L121.152 112.945C120.994 112.784 120.969 112.671 120.969 112.58H118.969ZM119.73 114.352C120.184 114.805 120.884 115.191 121.706 115.541L122.49 113.701C121.723 113.374 121.316 113.109 121.145 112.937L119.73 114.352ZM121.758 115.562C123.062 116.033 123.888 116.572 124.356 117.118L125.874 115.816C125.092 114.904 123.907 114.212 122.438 113.681L121.758 115.562ZM124.359 117.121C124.808 117.639 125.062 118.322 125.062 119.25H127.062C127.062 117.926 126.686 116.753 125.871 115.812L124.359 117.121ZM125.062 119.25C125.062 120.256 124.753 120.928 124.218 121.401L125.543 122.9C126.584 121.979 127.062 120.718 127.062 119.25H125.062ZM124.218 121.401C123.661 121.894 122.85 122.195 121.668 122.195V124.195C123.194 124.195 124.525 123.8 125.543 122.9L124.218 121.401ZM121.668 122.195C120.891 122.195 120.21 122.037 119.605 121.734L118.711 123.523C119.617 123.976 120.609 124.195 121.668 124.195V122.195ZM119.605 121.734C119.013 121.439 118.564 121.025 118.234 120.486L116.528 121.529C117.058 122.396 117.793 123.064 118.711 123.523L119.605 121.734ZM118.238 120.492C117.923 119.969 117.746 119.324 117.746 118.518H115.746C115.746 119.626 115.993 120.64 116.524 121.523L118.238 120.492ZM116.746 119.518H119.627V117.518H116.746V119.518ZM118.627 118.518C118.627 119.428 118.797 120.316 119.347 120.957L120.864 119.653C120.776 119.551 120.627 119.248 120.627 118.518H118.627ZM119.347 120.957C119.932 121.637 120.795 121.861 121.668 121.861V119.861C121.095 119.861 120.917 119.714 120.864 119.653L119.347 120.957ZM121.668 121.861C122.338 121.861 123.021 121.681 123.523 121.15C124.014 120.63 124.172 119.941 124.172 119.27H122.172C122.172 119.66 122.079 119.766 122.069 119.777C122.063 119.783 122.045 119.8 121.993 119.819C121.936 119.839 121.833 119.861 121.668 119.861V121.861Z" fill="black"/>
<path d="M141.381 117.717L142.729 108.781H145.57L143.041 123H140.16L138.5 114.621L136.859 123H133.969L131.43 108.781H134.291L135.629 117.707L137.299 108.781H139.711L141.381 117.717ZM150.121 123H147.25V108.781H150.121V123ZM156.537 117.512L155.404 118.938V123H152.533V108.781H155.404V114.982L156.312 113.449L158.959 108.781H162.475L158.402 115.031L162.543 123H159.135L156.537 117.512ZM166.605 123H163.734V108.781H166.605V123Z" fill="black"/>
<path d="M141.381 117.717L140.398 117.901L142.37 117.866L141.381 117.717ZM142.729 108.781V107.781H141.868L141.74 108.632L142.729 108.781ZM145.57 108.781L146.555 108.956L146.764 107.781H145.57V108.781ZM143.041 123V124H143.879L144.026 123.175L143.041 123ZM140.16 123L139.179 123.194L139.339 124H140.16V123ZM138.5 114.621L139.481 114.427L137.519 114.429L138.5 114.621ZM136.859 123V124H137.683L137.841 123.192L136.859 123ZM133.969 123L132.984 123.176L133.132 124H133.969V123ZM131.43 108.781V107.781H130.235L130.445 108.957L131.43 108.781ZM134.291 108.781L135.28 108.633L135.152 107.781H134.291V108.781ZM135.629 117.707L134.64 117.855L136.612 117.891L135.629 117.707ZM137.299 108.781V107.781H136.469L136.316 108.597L137.299 108.781ZM139.711 108.781L140.694 108.598L140.541 107.781H139.711V108.781ZM142.37 117.866L143.717 108.93L141.74 108.632L140.392 117.568L142.37 117.866ZM142.729 109.781H145.57V107.781H142.729V109.781ZM144.586 108.606L142.056 122.825L144.026 123.175L146.555 108.956L144.586 108.606ZM143.041 122H140.16V124H143.041V122ZM141.141 122.806L139.481 114.427L137.519 114.815L139.179 123.194L141.141 122.806ZM137.519 114.429L135.878 122.808L137.841 123.192L139.481 114.813L137.519 114.429ZM136.859 122H133.969V124H136.859V122ZM134.953 122.824L132.414 108.605L130.445 108.957L132.984 123.176L134.953 122.824ZM131.43 109.781H134.291V107.781H131.43V109.781ZM133.302 108.929L134.64 117.855L136.618 117.559L135.28 108.633L133.302 108.929ZM136.612 117.891L138.282 108.965L136.316 108.597L134.646 117.523L136.612 117.891ZM137.299 109.781H139.711V107.781H137.299V109.781ZM138.728 108.965L140.398 117.901L142.364 117.533L140.694 108.598L138.728 108.965ZM150.121 123V124H151.121V123H150.121ZM147.25 123H146.25V124H147.25V123ZM147.25 108.781V107.781H146.25V108.781H147.25ZM150.121 108.781H151.121V107.781H150.121V108.781ZM150.121 122H147.25V124H150.121V122ZM148.25 123V108.781H146.25V123H148.25ZM147.25 109.781H150.121V107.781H147.25V109.781ZM149.121 108.781V123H151.121V108.781H149.121ZM156.537 117.512L157.441 117.084L156.754 115.632L155.754 116.89L156.537 117.512ZM155.404 118.938L154.621 118.315L154.404 118.589V118.938H155.404ZM155.404 123V124H156.404V123H155.404ZM152.533 123H151.533V124H152.533V123ZM152.533 108.781V107.781H151.533V108.781H152.533ZM155.404 108.781H156.404V107.781H155.404V108.781ZM155.404 114.982H154.404V118.633L156.265 115.492L155.404 114.982ZM156.312 113.449L157.173 113.959L157.178 113.951L157.182 113.942L156.312 113.449ZM158.959 108.781V107.781H158.376L158.089 108.288L158.959 108.781ZM162.475 108.781L163.312 109.327L164.32 107.781H162.475V108.781ZM158.402 115.031L157.564 114.485L157.246 114.974L157.515 115.492L158.402 115.031ZM162.543 123V124H164.19L163.43 122.539L162.543 123ZM159.135 123L158.231 123.428L158.502 124H159.135V123ZM155.754 116.89L154.621 118.315L156.187 119.56L157.32 118.134L155.754 116.89ZM154.404 118.938V123H156.404V118.938H154.404ZM155.404 122H152.533V124H155.404V122ZM153.533 123V108.781H151.533V123H153.533ZM152.533 109.781H155.404V107.781H152.533V109.781ZM154.404 108.781V114.982H156.404V108.781H154.404ZM156.265 115.492L157.173 113.959L155.452 112.94L154.544 114.473L156.265 115.492ZM157.182 113.942L159.829 109.274L158.089 108.288L155.443 112.956L157.182 113.942ZM158.959 109.781H162.475V107.781H158.959V109.781ZM161.637 108.235L157.564 114.485L159.24 115.577L163.312 109.327L161.637 108.235ZM157.515 115.492L161.656 123.461L163.43 122.539L159.29 114.57L157.515 115.492ZM162.543 122H159.135V124H162.543V122ZM160.039 122.572L157.441 117.084L155.633 117.94L158.231 123.428L160.039 122.572ZM166.605 123V124H167.605V123H166.605ZM163.734 123H162.734V124H163.734V123ZM163.734 108.781V107.781H162.734V108.781H163.734ZM166.605 108.781H167.605V107.781H166.605V108.781ZM166.605 122H163.734V124H166.605V122ZM164.734 123V108.781H162.734V123H164.734ZM163.734 109.781H166.605V107.781H163.734V109.781ZM165.605 108.781V123H167.605V108.781H165.605Z" fill="black"/>
<path d="M53.9062 69.3184L55.9043 69.4066L55.9966 67.3184H53.9062V69.3184ZM10.791 86.0664L9.23205 87.3193L9.24055 87.3298L10.791 86.0664ZM11.0352 28.8887L12.5669 30.1746L12.5708 30.17L11.0352 28.8887ZM47.1191 27.4238L45.6508 28.7818L45.6563 28.7877L47.1191 27.4238ZM54.0039 46.0762V48.0762H56.1451L55.9993 45.9399L54.0039 46.0762ZM39.5996 46.0762L37.6003 46.1281L37.6509 48.0762H39.5996V46.0762ZM37.2559 35.7246L35.6396 36.9026L35.6509 36.9181L35.6625 36.9334L37.2559 35.7246ZM21.3379 36.8965L23.0547 37.9224L23.0602 37.9132L21.3379 36.8965ZM18.7988 50.1289L16.7991 50.0972L16.7988 50.113V50.1289H18.7988ZM21.1426 78.1074L19.422 79.127L19.4266 79.1348L19.4313 79.1426L21.1426 78.1074ZM37.1094 79.3281L38.682 80.5638L38.6873 80.557L38.6926 80.5502L37.1094 79.3281ZM39.5508 69.3184V67.3184H37.6302L37.5524 69.2373L39.5508 69.3184ZM51.9082 69.2301C51.564 77.0219 49.3896 82.6078 45.6616 86.3069L48.479 89.1463C53.1495 84.512 55.5324 77.8257 55.9043 69.4066L51.9082 69.2301ZM45.6616 86.3069C41.9378 90.0018 36.5802 91.9766 29.2969 91.9766V95.9766C37.313 95.9766 43.8044 93.7846 48.479 89.1463L45.6616 86.3069ZM29.2969 91.9766C21.736 91.9766 16.1878 89.5235 12.3415 84.8031L9.24055 87.3298C13.988 93.1562 20.777 95.9766 29.2969 95.9766V91.9766ZM12.35 84.8135C8.47308 79.9896 6.39453 72.9477 6.39453 63.4102H2.39453C2.39453 73.469 4.58031 81.5312 9.23208 87.3193L12.35 84.8135ZM6.39453 63.4102V51.4473H2.39453V63.4102H6.39453ZM6.39453 51.4473C6.39453 41.9582 8.54708 34.963 12.5669 30.1746L9.50337 27.6027C4.66907 33.3612 2.39453 41.4051 2.39453 51.4473H6.39453ZM12.5708 30.17C16.5621 25.3863 22.1147 22.9297 29.4922 22.9297V18.9297C21.1145 18.9297 14.3624 21.779 9.49949 27.6074L12.5708 30.17ZM29.4922 22.9297C36.866 22.9297 42.1345 24.9796 45.6508 28.7818L48.5875 26.0659C44.096 21.2092 37.6132 18.9297 29.4922 18.9297V22.9297ZM45.6563 28.7877C49.2806 32.675 51.4749 38.3957 52.0086 46.2124L55.9993 45.9399C55.4262 37.5457 53.0306 30.8315 48.582 26.06L45.6563 28.7877ZM54.0039 44.0762H39.5996V48.0762H54.0039V44.0762ZM41.5989 46.0242C41.4677 40.9707 40.694 36.9475 38.8492 34.5158L35.6625 36.9334C36.6823 38.2777 37.4711 41.1556 37.6003 46.1281L41.5989 46.0242ZM38.8721 34.5466C36.9164 31.8632 33.5246 30.8438 29.4922 30.8438V34.8438C33.0119 34.8438 34.7958 35.7449 35.6396 36.9026L38.8721 34.5466ZM29.4922 30.8438C25.1288 30.8438 21.6556 32.4243 19.6156 35.8797L23.0602 37.9132C24.2103 35.9651 26.1733 34.8438 29.4922 34.8438V30.8438ZM19.6211 35.8706C17.7426 39.0142 16.8978 43.8757 16.7991 50.0972L20.7986 50.1606C20.8951 44.0775 21.7431 40.1173 23.0547 37.9224L19.6211 35.8706ZM16.7988 50.1289V63.5566H20.7988V50.1289H16.7988ZM16.7988 63.5566C16.7988 67.1532 16.9971 70.2454 17.4102 72.8102C17.8196 75.3517 18.4591 77.5021 19.422 79.127L22.8632 77.0878C22.2636 76.076 21.7312 74.4829 21.3593 72.1741C20.9912 69.8887 20.7988 67.0239 20.7988 63.5566H16.7988ZM19.4313 79.1426C21.4811 82.5311 24.9551 84.0625 29.2969 84.0625V80.0625C25.9563 80.0625 23.9941 78.9572 22.8538 77.0722L19.4313 79.1426ZM29.2969 84.0625C33.3034 84.0625 36.6842 83.1064 38.682 80.5638L35.5367 78.0925C34.6699 79.1957 32.8424 80.0625 29.2969 80.0625V84.0625ZM38.6926 80.5502C40.5331 78.1658 41.3516 74.2723 41.5491 69.3994L37.5524 69.2373C37.3593 73.9999 36.5502 76.7795 35.5262 78.106L38.6926 80.5502ZM39.5508 71.3184H53.9062V67.3184H39.5508V71.3184ZM90.5273 67.8047L89.0977 69.2033L89.113 69.219L89.1288 69.2344L90.5273 67.8047ZM82.4707 63.166L83.2268 61.3144L83.2033 61.3048L83.1795 61.2958L82.4707 63.166ZM67.0898 53.6934L65.5713 54.995L65.5771 55.0017L67.0898 53.6934ZM68.75 26.3984L70.0487 27.9194L70.0497 27.9186L68.75 26.3984ZM96.6309 23.7129L95.6767 25.4706L95.6832 25.4741L95.6897 25.4776L96.6309 23.7129ZM104.492 31.4766L102.735 32.4319L102.739 32.4384L102.742 32.445L104.492 31.4766ZM107.275 42.9023V44.9023H109.275V42.9023H107.275ZM92.9688 42.9023H90.9688V44.9023H92.9688V42.9023ZM90.8203 35.334L89.2558 36.5798L89.2685 36.5958L89.2815 36.6115L90.8203 35.334ZM78.8574 34.9434L80.3034 36.3251L80.311 36.3171L80.3185 36.3091L78.8574 34.9434ZM79.1016 46.2227L77.6728 47.6222L77.6801 47.6296L77.6873 47.6369L79.1016 46.2227ZM87.4023 51.1055L86.6181 52.9453L86.6697 52.9673L86.7224 52.9863L87.4023 51.1055ZM102.49 60.334L100.972 61.6356L100.978 61.6433L102.49 60.334ZM63.8184 83.0391L62.1047 84.0704L62.1118 84.082L63.8184 83.0391ZM60.6445 70.5879V68.5879H58.6445V70.5879H60.6445ZM75.0488 70.5879H77.0488V68.5879H75.0488V70.5879ZM94.7734 74.3477C94.7734 71.1233 93.9363 68.3416 91.9259 66.375L89.1288 69.2344C90.1132 70.1974 90.7734 71.7777 90.7734 74.3477H94.7734ZM91.957 66.4061C90.1907 64.6006 87.1813 62.9292 83.2268 61.3144L81.7146 65.0176C85.5726 66.5929 87.9343 68.014 89.0977 69.2033L91.957 66.4061ZM83.1795 61.2958C76.1949 58.6487 71.4181 55.6405 68.6026 52.3851L65.5771 55.0017C69.0116 58.9728 74.4887 62.2797 81.7619 65.0362L83.1795 61.2958ZM68.6084 52.3918C65.8042 49.1203 64.4023 45.2891 64.4023 40.8027H60.4023C60.4023 46.2122 62.1254 50.9747 65.5713 54.9949L68.6084 52.3918ZM64.4023 40.8027C64.4023 35.3476 66.2991 31.121 70.0487 27.9194L67.4513 24.8774C62.7373 28.9025 60.4023 34.2787 60.4023 40.8027H64.4023ZM70.0497 27.9186C73.8929 24.6327 78.8109 22.9297 84.9609 22.9297V18.9297C78.025 18.9297 72.1357 20.8725 67.4503 24.8783L70.0497 27.9186ZM84.9609 22.9297C89.0308 22.9297 92.5858 23.7927 95.6767 25.4706L97.585 21.9552C93.84 19.9222 89.615 18.9297 84.9609 18.9297V22.9297ZM95.6897 25.4776C98.7679 27.1193 101.102 29.4283 102.735 32.4319L106.249 30.5212C104.236 26.8191 101.33 23.9523 97.572 21.9482L95.6897 25.4776ZM102.742 32.445C104.416 35.4691 105.275 38.9378 105.275 42.9023H109.275C109.275 38.3382 108.279 34.1898 106.242 30.5082L102.742 32.445ZM107.275 40.9023H92.9688V44.9023H107.275V40.9023ZM94.9688 42.9023C94.9688 39.3324 94.2036 36.2782 92.3591 34.0565L89.2815 36.6115C90.3016 37.8403 90.9688 39.8316 90.9688 42.9023H94.9688ZM92.3849 34.0881C90.5327 31.7621 87.8675 30.6973 84.7168 30.6973V34.6973C86.9046 34.6973 88.3085 35.3902 89.2558 36.5798L92.3849 34.0881ZM84.7168 30.6973C81.7892 30.6973 79.2563 31.5879 77.3964 33.5776L80.3185 36.3091C81.258 35.304 82.6314 34.6973 84.7168 34.6973V30.6973ZM77.4114 33.5616C75.5763 35.4821 74.7578 38.0076 74.7578 40.9004H78.7578C78.7578 38.7801 79.3391 37.3343 80.3034 36.3251L77.4114 33.5616ZM74.7578 40.9004C74.7578 43.4527 75.8009 45.7113 77.6728 47.6222L80.5303 44.8231C79.2772 43.5439 78.7578 42.2543 78.7578 40.9004H74.7578ZM77.6873 47.6369C79.5312 49.4807 82.5925 51.2295 86.6181 52.9453L88.1865 49.2656C84.2694 47.596 81.7969 46.0896 80.5158 44.8084L77.6873 47.6369ZM86.7224 52.9863C93.4904 55.433 98.1607 58.3561 100.972 61.6356L104.009 59.0324C100.57 55.0202 95.1815 51.791 88.0823 49.2246L86.7224 52.9863ZM100.978 61.6433C103.769 64.866 105.227 69.0143 105.227 74.25H109.227C109.227 68.2227 107.526 63.0936 104.002 59.0246L100.978 61.6433ZM105.227 74.25C105.227 79.9728 103.426 84.2181 99.9935 87.2537L102.643 90.2502C107.088 86.3197 109.227 80.8969 109.227 74.25H105.227ZM99.9935 87.2537C96.5155 90.3293 91.6809 91.9766 85.2539 91.9766V95.9766C92.3686 95.9766 98.2436 94.1408 102.643 90.2502L99.9935 87.2537ZM85.2539 91.9766C80.947 91.9766 77.0742 91.093 73.5995 89.3557L71.8107 92.9334C75.8881 94.9721 80.3812 95.9766 85.2539 95.9766V91.9766ZM73.5995 89.3557C70.15 87.6309 67.4729 85.1837 65.5249 81.9962L62.1118 84.082C64.4607 87.9257 67.7081 90.8821 71.8107 92.9334L73.5995 89.3557ZM65.5319 82.0077C63.6327 78.8521 62.6445 75.0709 62.6445 70.5879H58.6445C58.6445 75.6752 59.7723 80.1948 62.1048 84.0704L65.5319 82.0077ZM60.6445 72.5879H75.0488V68.5879H60.6445V72.5879ZM73.0488 70.5879C73.0488 74.8691 73.8667 78.4331 75.9248 80.8272L78.958 78.2197C77.826 76.9028 77.0488 74.5098 77.0488 70.5879H73.0488ZM75.9248 80.8272C78.052 83.3017 81.3409 84.3066 85.2539 84.3066V80.3066C81.9404 80.3066 80.021 79.4561 78.958 78.2197L75.9248 80.8272ZM85.2539 84.3066C88.0986 84.3066 90.592 83.5484 92.3473 81.6904C94.0826 79.8537 94.7734 77.2815 94.7734 74.3477H90.7734C90.7734 76.7198 90.211 78.127 89.4398 78.9434C88.6886 79.7384 87.4222 80.3066 85.2539 80.3066V84.3066Z" fill="black"/>
<path d="M163.904 68.584L170.643 23.9062H184.852L172.205 95H157.801L149.5 53.1055L141.297 95H126.844L114.148 23.9062H128.455L135.145 68.5352L143.494 23.9062H155.555L163.904 68.584Z" fill="black"/>
<path d="M163.904 68.584L162.921 68.7677L164.893 68.7331L163.904 68.584ZM170.643 23.9062V22.9062H169.782L169.654 23.7571L170.643 23.9062ZM184.852 23.9062L185.836 24.0814L186.045 22.9062H184.852V23.9062ZM172.205 95V96H173.043L173.19 95.1751L172.205 95ZM157.801 95L156.82 95.1944L156.979 96H157.801V95ZM149.5 53.1055L150.481 52.9111L148.519 52.9133L149.5 53.1055ZM141.297 95V96H142.12L142.278 95.1922L141.297 95ZM126.844 95L125.859 95.1758L126.007 96H126.844V95ZM114.148 23.9062V22.9062H112.954L113.164 24.082L114.148 23.9062ZM128.455 23.9062L129.444 23.758L129.316 22.9062H128.455V23.9062ZM135.145 68.5352L134.156 68.6834L136.127 68.7191L135.145 68.5352ZM143.494 23.9062V22.9062H142.664L142.511 23.7224L143.494 23.9062ZM155.555 23.9062L156.538 23.7225L156.385 22.9062H155.555V23.9062ZM164.893 68.7331L171.631 24.0554L169.654 23.7571L162.915 68.4349L164.893 68.7331ZM170.643 24.9062H184.852V22.9062H170.643V24.9062ZM183.867 23.7311L171.221 94.8249L173.19 95.1751L185.836 24.0814L183.867 23.7311ZM172.205 94H157.801V96H172.205V94ZM158.782 94.8056L150.481 52.9111L148.519 53.2998L156.82 95.1944L158.782 94.8056ZM148.519 52.9133L140.316 94.8078L142.278 95.1922L150.481 53.2976L148.519 52.9133ZM141.297 94H126.844V96H141.297V94ZM127.828 94.8242L115.133 23.7305L113.164 24.082L125.859 95.1758L127.828 94.8242ZM114.148 24.9062H128.455V22.9062H114.148V24.9062ZM127.466 24.0545L134.156 68.6834L136.133 68.3869L129.444 23.758L127.466 24.0545ZM136.127 68.7191L144.477 24.0901L142.511 23.7224L134.162 68.3513L136.127 68.7191ZM143.494 24.9062H155.555V22.9062H143.494V24.9062ZM154.572 24.09L162.921 68.7677L164.887 68.4003L156.538 23.7225L154.572 24.09Z" fill="black"/>
</svg>
